<svg width="800" height="200" viewBox="0 0 800 200" fill="none" xmlns="http://www.w3.org/2000/svg">
<defs>
<linearGradient id="g" x1="0%" y1="0%" x2="100%" y2="100%">
<stop offset="0%" stop-color="#00E7D0"/>
<stop offset="100%" stop-color="#076BB7"/>
</linearGradient>
</defs>
<rect width="800" height="200" fill="#0a0f1a"/>
<g opacity="0.05" stroke="#00E7D0" stroke-width="0.5">
<line x1="0" y1="50" x2="800" y2="50"/>
<line x1="0" y1="100" x2="800" y2="100"/>
<line x1="0" y1="150" x2="800" y2="150"/>
<line x1="200" y1="0" x2="200" y2="200"/>
<line x1="400" y1="0" x2="400" y2="200"/>
<line x1="600" y1="0" x2="600" y2="200"/>
</g>
<g transform="translate(60, 60)" opacity="0.5">
<path d="M0 40 L30 40 L50 10 L90 10" stroke="url(#g)" stroke-width="2" fill="none"/>
<path d="M0 60 L50 60 L70 30 L110 30" stroke="url(#g)" stroke-width="1.5" fill="none" opacity="0.7"/>
<circle cx="90" cy="10" r="3" fill="#00E7D0"/>
<circle cx="110" cy="30" r="2" fill="#00E7D0" opacity="0.7"/>
</g>
<text x="300" y="95" font-family="system-ui, -apple-system, sans-serif" font-size="48" font-weight="700" fill="white">CoreClaw</text>
<text x="302" y="125" font-family="system-ui, -apple-system, sans-serif" font-size="16" fill="#94a3b8">Web Scraping Platform &amp; Ready-Made Data Workers</text>
<rect x="300" y="138" width="240" height="3" rx="1.5" fill="url(#g)"/>
<g transform="translate(640, 50)" opacity="0.4">
<path d="M0 0 L60 0 L60 60" stroke="url(#g)" stroke-width="2" fill="none"/>
<path d="M15 15 L60 15 L60 45" stroke="url(#g)" stroke-width="1.5" fill="none" opacity="0.6"/>
<path d="M0 100 L60 100 L60 60" stroke="#076BB7" stroke-width="2" fill="none" opacity="0.5"/>
</g>
</svg>